#!OML:ASF H:\Not Pregnant\Project 1\Capture day 1\Session 1\non-pregnant.ASF
:FULLY-SPECIFIED
:DEGREES
1156
root 6.18012 15.4644 42.9806 -165.148 -130.419 -184.477
lowerback -0.859921 1.00972 1.31044
upperback -6.90127 1.32186 0.337124
thorax -6.66521 0.552642 -0.442067
lowerneck 11.9254 -6.93514 -29.8657
upperneck -2.90986 -14.1246 40.7969
head 2.9163 -8.69431 20.7963
rclavicle 1.11792e-013 1.94809e-014
rhumerus -37.82 -10.587 -79.3864
rradius 24.141
rwrist 27.0643
rhand -10.0689 -3.18003
rfingers 7.12502
rthumb -164.083 147.454
lclavicle 1.11792e-013 1.94809e-014
lhumerus -45.2915 -4.95502 84.0765
lradius 38.1807
lwrist 37.1757
lhand -18.0686 -11.01
lfingers 7.12502
lthumb 8.20414 18.8107
rfemur -23.7442 15.4654 13.8067
rtibia 53.0613
rfoot -2.88828 21.2188
rtoes -18.0936
lfemur -31.975 -5.13218 -13.9088
ltibia 33.3206
lfoot -15.1571 -6.47161
ltoes -31.1675
1157
root 6.18709 15.4725 43.0357 -165.122 -129.944 -184.428
lowerback -0.704103 0.931828 1.16139
upperback -6.87987 1.21591 0.342877
thorax -6.73683 0.508561 -0.350098
lowerneck 11.9424 -6.94249 -29.8961
upperneck -2.97501 -14.1355 40.7995
head 2.9039 -8.70535 20.8025
rclavicle 5.23176e-014 1.49089e-014
rhumerus -37.8344 -10.5279 -79.49
rradius 24.31
rwrist 26.7469
rhand -10.1904 -3.1767
rfingers 7.12502
rthumb -164.2 147.448
lclavicle 5.23176e-014 1.49089e-014
lhumerus -45.0304 -5.23208 83.9023
lradius 38.3041
lwrist 37.2058
lhand -17.9377 -10.9655
lfingers 7.12502
lthumb 8.33048 18.8503
rfemur -24.524 15.324 13.4402
rtibia 53.8243
rfoot -2.98469 20.9448
rtoes -20.228
lfemur -31.7409 -4.86405 -14.2108
ltibia 33.1846
lfoot -15.1724 -6.30726
ltoes -30.9653
1158
root 6.19399 15.4792 43.0866 -165.066 -129.486 -184.421
lowerback -0.513818 0.845891 1.00249
upperback -6.86984 1.09994 0.368945
thorax -6.84086 0.460615 -0.231005
lowerneck 11.9561 -6.94982 -29.9151
upperneck -3.02554 -14.1446 40.7799
head 2.89107 -8.7132 20.7918
rclavicle 1.95803e-014 6.36111e-015
rhumerus -37.8497 -10.3708 -79.6551
rradius 24.5015
rwrist 26.3508
rhand -10.3118 -3.18575
rfingers 7.12502
rthumb -164.317 147.43
lclavicle 1.95803e-014 6.36111e-015
lhumerus -44.7706 -5.46506 83.7122
lradius 38.3955
lwrist 37.2281
lhand -17.7461 -10.7458
lfingers 7.12502
lthumb 8.5154 19.0625
rfemur -25.2854 15.2089 13.1495
rtibia 54.4993
rfoot -3.48704 20.4994
rtoes -22.2547
lfemur -31.5396 -4.61439 -14.4569
ltibia 33.0681
lfoot -15.1771 -6.13515
ltoes -30.7954
1159
root 6.20034 15.4853 43.1355 -164.991 -129.056 -184.451
lowerback -0.317068 0.757239 0.867949
upperback -6.85844 0.981045 0.401663
thorax -6.9464 0.410245 -0.117791
lowerneck 11.991 -6.95724 -29.9374
upperneck -3.08416 -14.1573 40.7564
head 2.87327 -8.72451 20.7804
rclavicle -7.50412e-015 -3.37934e-015
rhumerus -37.8602 -10.2038 -79.8407
rradius 24.688
rwrist 25.9379
rhand -10.4202 -3.18239
rfingers 7.12502
rthumb -164.421 147.425
lclavicle -7.50412e-015 -3.37934e-015
lhumerus -44.4968 -5.65772 83.4988
lradius 38.454
lwrist 37.2364
lhand -17.5659 -10.568
lfingers 7.12502
lthumb 8.68924 19.2331
rfemur -25.9966 15.0923 12.9354
rtibia 55.0738
rfoot -4.30907 19.9058
rtoes -23.8242
lfemur -31.347 -4.3994 -14.6598
ltibia 32.9649
lfoot -15.1809 -5.94091
ltoes -30.7099
1160
root 6.20602 15.4911 43.1829 -164.901 -128.647 -184.514
lowerback -0.117673 0.662329 0.747327
upperback -6.84242 0.85431 0.443109
thorax -7.04799 0.355736 -0.0020473
lowerneck 12.0323 -6.96516 -29.9539
upperneck -3.14629 -14.1693 40.7243
head 2.85129 -8.73535 20.7625
rclavicle 3.01718e-014 8.54774e-015
rhumerus -37.8519 -10.0281 -80.0492
rradius 24.8612
rwrist 25.5293
rhand -10.5103 -3.19045
rfingers 7.12502
rthumb -164.508 147.41
lclavicle 3.01718e-014 8.54774e-015
lhumerus -44.2075 -5.78106 83.2532
lradius 38.4792
lwrist 37.2037
lhand -17.3765 -10.385
lfingers 7.12502
lthumb 8.87208 19.4085
rfemur -26.6591 14.9742 12.7923
rtibia 55.5416
rfoot -5.31143 19.162
rtoes -24.8341
lfemur -31.1562 -4.21633 -14.8245
ltibia 32.8672
lfoot -15.1756 -5.73596
ltoes -30.6009
1161
root 6.21067 15.4974 43.2301 -164.822 -128.255 -184.581
lowerback 0.0659174 0.569772 0.645413
upperback -6.81452 0.730635 0.478961
thorax -7.12677 0.301809 0.0981632
lowerneck 12.0954 -6.97607 -29.9685
upperneck -3.22528 -14.1868 40.6932
head 2.82306 -8.75117 20.7453
rclavicle 8.1626e-015 2.78299e-015
rhumerus -37.8326 -9.87172 -80.2683
rradius 25.0237
rwrist 25.1373
rhand -10.583 -3.18558
rfingers 7.12502
rthumb -164.578 147.41
lclavicle 8.1626e-015 2.78299e-015
lhumerus -43.8934 -5.85269 82.9795
lradius 38.4739
lwrist 37.1392
lhand -17.212 -10.2589
lfingers 7.12502
lthumb 9.0308 19.5278
rfemur -27.2563 14.8461 12.6969
rtibia 55.8902
rfoot -6.37931 18.2623
rtoes -25.3355
lfemur -30.947 -4.07518 -14.9761
ltibia 32.7646
lfoot -15.1667 -5.50658
ltoes -30.5101
1162
root 6.21406 15.5042 43.2784 -164.779 -127.875 -184.627
lowerback 0.224408 0.476241 0.553382
upperback -6.76593 0.605048 0.50387
thorax -7.16797 0.246374 0.182395
lowerneck 12.1618 -6.9919 -29.9703
upperneck -3.31508 -14.2067 40.6569
head 2.79053 -8.76813 20.7209
rclavicle 3.5949e-014 1.39149e-014
rhumerus -37.7938 -9.77254 -80.4845
rradius 25.1567
rwrist 24.8301
rhand -10.6598 -3.15078
rfingers 7.12502
rthumb -164.652 147.439
lclavicle 3.5949e-014 1.39149e-014
lhumerus -43.5519 -5.85491 82.6748
lradius 38.4423
lwrist 37.0549
lhand -17.118 -10.2366
lfingers 7.12502
lthumb 9.12145 19.5462
rfemur -27.773 14.697 12.6268
rtibia 56.1168
rfoot -7.46299 17.2064
rtoes -25.6243
lfemur -30.7041 -3.98425 -15.1361
ltibia 32.6553
lfoot -15.1593 -5.23891
ltoes -30.4607
1163
root 6.21616 15.5115 43.3281 -164.743 -127.477 -184.671
lowerback 0.333948 0.399108 0.485492
upperback -6.70001 0.501009 0.513884
thorax -7.16131 0.199878 0.236902
lowerneck 12.2444 -7.01446 -29.9749
upperneck -3.42229 -14.2383 40.6306
head 2.757 -8.79346 20.7024
rclavicle -5.9741e-014 -5.76476e-015
rhumerus -37.735 -9.72378 -80.7002
rradius 25.2633
rwrist 24.5947
rhand -10.7371 -3.10405
rfingers 7.12502
rthumb -164.726 147.48
lclavicle -5.9741e-014 -5.76476e-015
lhumerus -43.1801 -5.82601 82.3534
lradius 38.3852
lwrist 36.9619
lhand -17.0885 -10.2829
lfingers 7.12502
lthumb 9.14991 19.4986
rfemur -28.2333 14.5449 12.5745
rtibia 56.2228
rfoot -8.52359 16.0114
rtoes -25.9056
lfemur -30.439 -3.91823 -15.3003
ltibia 32.544
lfoot -15.1589 -4.91857
ltoes -30.4822
1164
root 6.21715 15.5189 43.3787 -164.689 -127.057 -184.737
lowerback 0.402071 0.340924 0.449844
upperback -6.62491 0.422836 0.515486
thorax -7.12023 0.164025 0.26326
lowerneck 12.3476 -7.04145 -29.9871
upperneck -3.54243 -14.2812 40.6135
head 2.72288 -8.82719 20.6913
rclavicle 5.24232e-014 1.27222e-014
rhumerus -37.6783 -9.63431 -80.9527
rradius 25.3815
rwrist 24.3439
rhand -10.815 -3.07522
rfingers 7.12502
rthumb -164.801 147.503
lclavicle 5.24232e-014 1.27222e-014
lhumerus -42.7942 -5.76716 82.0266
lradius 38.3077
lwrist 36.8603
lhand -17.177 -10.4157
lfingers 7.12502
lthumb 9.06457 19.3696
rfemur -28.6497 14.3898 12.5551
rtibia 56.2193
rfoot -9.55664 14.7034
rtoes -26.292
lfemur -30.1685 -3.86183 -15.4533
ltibia 32.4467
lfoot -15.1663 -4.55895
ltoes -30.5257
